<svg xmlns="http://www.w3.org/2000/svg" width="380" height="280" viewBox="0 0 380 280">
<defs>
<style>
@keyframes twinkle{0%,100%{opacity:.1}50%{opacity:1}}
@keyframes bob{0%,100%{transform:translateY(0)}50%{transform:translateY(-7px)}}
@keyframes ep{0%,100%{opacity:.35}50%{opacity:1}}
@keyframes ep2{0%,100%{opacity:.35}50%{opacity:1}}
</style>
<radialGradient id="bg" cx="40%" cy="35%" r="80%">
<stop offset="0%" stop-color="#0d0920"/>
<stop offset="100%" stop-color="#020108"/>
</radialGradient>
<radialGradient id="nb1" cx="50%" cy="50%" r="50%">
<stop offset="0%" stop-color="#1a0838" stop-opacity=".5"/>
<stop offset="100%" stop-color="#1a0838" stop-opacity="0"/>
</radialGradient>
<radialGradient id="nb2" cx="50%" cy="50%" r="50%">
<stop offset="0%" stop-color="#001840" stop-opacity=".4"/>
<stop offset="100%" stop-color="#001840" stop-opacity="0"/>
</radialGradient>
<radialGradient id="eg1" cx="100%" cy="50%" r="100%">
<stop offset="0%" stop-color="#FF8800"/>
<stop offset="45%" stop-color="#FF5500" stop-opacity=".55"/>
<stop offset="100%" stop-color="#FF2200" stop-opacity="0"/>
</radialGradient>
<radialGradient id="eg2" cx="100%" cy="50%" r="100%">
<stop offset="0%" stop-color="#FF8800"/>
<stop offset="45%" stop-color="#FF5500" stop-opacity=".55"/>
<stop offset="100%" stop-color="#FF2200" stop-opacity="0"/>
</radialGradient>
<filter id="gl" x="-80%" y="-80%" width="260%" height="260%">
<feGaussianBlur stdDeviation="2.5" result="b"/>
<feMerge><feMergeNode in="b"/><feMergeNode in="SourceGraphic"/></feMerge>
</filter>
<filter id="cgl" x="-100%" y="-100%" width="300%" height="300%">
<feGaussianBlur stdDeviation="4" result="b"/>
<feMerge><feMergeNode in="b"/><feMergeNode in="SourceGraphic"/></feMerge>
</filter>
<filter id="sgl" x="-200%" y="-200%" width="500%" height="500%">
<feGaussianBlur stdDeviation="7" result="b"/>
<feMerge><feMergeNode in="b"/><feMergeNode in="SourceGraphic"/></feMerge>
</filter>
</defs>
<rect width="380" height="280" fill="url(#bg)"/>
<ellipse cx="72" cy="55" rx="135" ry="90" fill="url(#nb1)"/>
<ellipse cx="308" cy="212" rx="118" ry="98" fill="url(#nb2)"/>
<g fill="white">
<circle cx="12" cy="18" r=".5" style="animation:twinkle 2.1s .3s infinite"/>
<circle cx="35" cy="8" r=".5" style="animation:twinkle 3.2s .7s infinite"/>
<circle cx="55" cy="32" r=".5" style="animation:twinkle 2.8s 1.1s infinite"/>
<circle cx="78" cy="12" r=".5" style="animation:twinkle 3.5s .2s infinite"/>
<circle cx="22" cy="65" r=".5" style="animation:twinkle 4.1s .9s infinite"/>
<circle cx="48" cy="80" r=".5" style="animation:twinkle 2.6s .4s infinite"/>
<circle cx="15" cy="95" r=".5" style="animation:twinkle 3.8s 2.1s infinite"/>
<circle cx="62" cy="48" r=".5" style="animation:twinkle 2.2s 1.5s infinite"/>
<circle cx="30" cy="122" r=".5" style="animation:twinkle 3.1s .6s infinite"/>
<circle cx="52" cy="145" r=".5" style="animation:twinkle 2.9s 1.9s infinite"/>
<circle cx="18" cy="168" r=".5" style="animation:twinkle 3.6s .8s infinite"/>
<circle cx="42" cy="192" r=".5" style="animation:twinkle 2.4s 2.4s infinite"/>
<circle cx="70" cy="208" r=".5" style="animation:twinkle 3.3s .1s infinite"/>
<circle cx="25" cy="222" r=".5" style="animation:twinkle 2.7s 1.2s infinite"/>
<circle cx="8" cy="245" r=".5" style="animation:twinkle 4.0s .5s infinite"/>
<circle cx="55" cy="258" r=".5" style="animation:twinkle 2.5s 1.7s infinite"/>
<circle cx="38" cy="272" r=".5" style="animation:twinkle 3.4s 2.8s infinite"/>
<circle cx="90" cy="195" r=".5" style="animation:twinkle 2.1s 1.3s infinite"/>
<circle cx="78" cy="240" r=".5" style="animation:twinkle 3.9s .4s infinite"/>
<circle cx="42" cy="110" r=".5" style="animation:twinkle 2.6s 2.0s infinite"/>
<circle cx="95" cy="12" r=".5" style="animation:twinkle 3.3s .8s infinite"/>
<circle cx="128" cy="22" r=".5" style="animation:twinkle 2.0s 1.6s infinite"/>
<circle cx="162" cy="8" r=".5" style="animation:twinkle 3.7s .3s infinite"/>
<circle cx="215" cy="15" r=".5" style="animation:twinkle 2.4s 2.1s infinite"/>
<circle cx="248" cy="5" r=".5" style="animation:twinkle 3.0s 1.0s infinite"/>
<circle cx="285" cy="18" r=".5" style="animation:twinkle 2.8s .6s infinite"/>
<circle cx="308" cy="28" r=".5" style="animation:twinkle 4.2s 1.8s infinite"/>
<circle cx="88" cy="258" r=".5" style="animation:twinkle 2.3s 2.5s infinite"/>
<circle cx="118" cy="268" r=".5" style="animation:twinkle 3.6s .9s infinite"/>
<circle cx="155" cy="252" r=".5" style="animation:twinkle 2.7s 1.4s infinite"/>
<circle cx="188" cy="270" r=".5" style="animation:twinkle 3.1s .2s infinite"/>
<circle cx="225" cy="258" r=".5" style="animation:twinkle 2.5s 2.2s infinite"/>
<circle cx="262" cy="275" r=".5" style="animation:twinkle 3.8s .7s infinite"/>
<circle cx="295" cy="248" r=".5" style="animation:twinkle 2.2s 1.7s infinite"/>
<circle cx="320" cy="15" r=".5" style="animation:twinkle 2.8s .3s infinite"/>
<circle cx="345" cy="35" r=".5" style="animation:twinkle 3.1s 1.4s infinite"/>
<circle cx="368" cy="8" r=".5" style="animation:twinkle 2.3s .9s infinite"/>
<circle cx="355" cy="55" r=".5" style="animation:twinkle 3.7s 2.1s infinite"/>
<circle cx="332" cy="75" r=".5" style="animation:twinkle 2.6s .6s infinite"/>
<circle cx="374" cy="92" r=".5" style="animation:twinkle 4.2s 1.8s infinite"/>
<circle cx="315" cy="105" r=".5" style="animation:twinkle 2.9s .2s infinite"/>
<circle cx="360" cy="125" r=".5" style="animation:twinkle 3.4s 2.5s infinite"/>
<circle cx="342" cy="150" r=".5" style="animation:twinkle 2.1s 1.0s infinite"/>
<circle cx="376" cy="168" r=".5" style="animation:twinkle 3.8s .4s infinite"/>
<circle cx="325" cy="192" r=".5" style="animation:twinkle 2.5s 1.6s infinite"/>
<circle cx="352" cy="215" r=".5" style="animation:twinkle 3.2s 2.0s infinite"/>
<circle cx="368" cy="242" r=".5" style="animation:twinkle 2.7s .7s infinite"/>
<circle cx="336" cy="260" r=".5" style="animation:twinkle 4.0s 1.3s infinite"/>
<circle cx="318" cy="274" r=".5" style="animation:twinkle 3.5s 2.7s infinite"/>
</g>
<g fill="#CCE8FF">
<circle cx="28" cy="42" r="1" style="animation:twinkle 2.8s .5s infinite"/>
<circle cx="62" cy="22" r="1" style="animation:twinkle 3.5s 1.3s infinite"/>
<circle cx="45" cy="190" r="1" style="animation:twinkle 2.2s .8s infinite"/>
<circle cx="20" cy="248" r="1" style="animation:twinkle 3.9s 2.2s infinite"/>
<circle cx="75" cy="265" r="1" style="animation:twinkle 2.6s 1.6s infinite"/>
<circle cx="338" cy="22" r="1" style="animation:twinkle 3.1s .2s infinite"/>
<circle cx="364" cy="48" r="1" style="animation:twinkle 2.4s 1.9s infinite"/>
<circle cx="347" cy="115" r="1" style="animation:twinkle 3.8s .7s infinite"/>
<circle cx="328" cy="240" r="1" style="animation:twinkle 2.9s 2.4s infinite"/>
<circle cx="362" cy="272" r="1" style="animation:twinkle 3.3s 1.1s infinite"/>
<circle cx="168" cy="18" r="1" style="animation:twinkle 2.7s .4s infinite"/>
<circle cx="302" cy="8" r="1" style="animation:twinkle 3.4s 1.5s infinite"/>
<circle cx="85" cy="250" r="1" style="animation:twinkle 2.1s 2.3s infinite"/>
<circle cx="375" cy="198" r="1" style="animation:twinkle 3.6s .8s infinite"/>
<circle cx="12" cy="180" r="1" style="animation:twinkle 2.9s 1.9s infinite"/>
</g>
<g fill="white">
<circle cx="40" cy="118" r="1.5" style="animation:twinkle 2.5s .4s infinite"/>
<circle cx="18" cy="58" r="1.5" style="animation:twinkle 3.2s 1.8s infinite"/>
<circle cx="68" cy="248" r="1.5" style="animation:twinkle 2.8s .9s infinite"/>
<circle cx="364" cy="175" r="1.5" style="animation:twinkle 3.6s 2.3s infinite"/>
<circle cx="373" cy="135" r="1.5" style="animation:twinkle 2.1s .5s infinite"/>
<circle cx="344" cy="268" r="1.5" style="animation:twinkle 4.1s 1.5s infinite"/>
<circle cx="95" cy="268" r="1.5" style="animation:twinkle 2.6s 2.0s infinite"/>
</g>
<g fill="white" filter="url(#sgl)">
<circle cx="52" cy="42" r="2" style="animation:twinkle 4.5s 1.2s infinite" opacity=".9"/>
<circle cx="28" cy="215" r="2" style="animation:twinkle 3.8s 2.6s infinite" opacity=".9"/>
<circle cx="365" cy="55" r="2" style="animation:twinkle 4.2s .1s infinite" opacity=".9"/>
<circle cx="345" cy="218" r="2" style="animation:twinkle 3.5s 1.8s infinite" opacity=".9"/>
</g>
<g style="animation:bob 3.8s ease-in-out infinite;transform-origin:190px 140px">
<ellipse cx="84" cy="125" rx="22" ry="8" fill="url(#eg1)" style="animation:ep .38s ease-in-out infinite"/>
<ellipse cx="84" cy="155" rx="22" ry="8" fill="url(#eg2)" style="animation:ep2 .38s .18s ease-in-out infinite"/>
<circle cx="103" cy="125" r="4.5" fill="#FF9900" filter="url(#gl)" style="animation:ep .38s ease-in-out infinite"/>
<circle cx="103" cy="155" r="4.5" fill="#FF9900" filter="url(#gl)" style="animation:ep2 .38s .18s ease-in-out infinite"/>
<polygon points="172,139 114,95 105,102 168,142" fill="#8A9298" stroke="#9AAAB2" stroke-width=".5"/>
<line x1="162" y1="139" x2="118" y2="98" stroke="#6A7278" stroke-width=".5" opacity=".5"/>
<polygon points="172,141 114,185 105,178 168,138" fill="#808890" stroke="#9AAAB2" stroke-width=".5"/>
<line x1="162" y1="141" x2="118" y2="182" stroke="#6A7278" stroke-width=".5" opacity=".5"/>
<polygon points="208,139 266,95 275,102 212,142" fill="#929AA2" stroke="#A2AAB2" stroke-width=".5"/>
<line x1="218" y1="139" x2="262" y2="98" stroke="#7A8290" stroke-width=".5" opacity=".5"/>
<polygon points="208,141 266,185 275,178 212,138" fill="#888F98" stroke="#9AAAB2" stroke-width=".5"/>
<line x1="218" y1="141" x2="262" y2="182" stroke="#7A8290" stroke-width=".5" opacity=".5"/>
<rect x="100" y="90" width="18" height="11" rx="2" fill="#6A7278"/>
<rect x="100" y="91" width="9" height="3" rx="1" fill="#505860" opacity=".8"/>
<rect x="100" y="179" width="18" height="11" rx="2" fill="#6A7278"/>
<rect x="100" y="180" width="9" height="3" rx="1" fill="#505860" opacity=".8"/>
<rect x="262" y="90" width="18" height="11" rx="2" fill="#6A7278"/>
<rect x="262" y="91" width="9" height="3" rx="1" fill="#505860" opacity=".8"/>
<rect x="262" y="179" width="18" height="11" rx="2" fill="#6A7278"/>
<rect x="262" y="180" width="9" height="3" rx="1" fill="#505860" opacity=".8"/>
<rect x="116" y="90" width="7" height="2.5" rx=".5" fill="#CC2222"/>
<rect x="116" y="179.5" width="7" height="2.5" rx=".5" fill="#CC2222"/>
<rect x="278" y="90" width="7" height="2.5" rx=".5" fill="#CC2222"/>
<rect x="278" y="179.5" width="7" height="2.5" rx=".5" fill="#CC2222"/>
<polygon points="102,140 133,135 256,134 284,140 256,146 133,145" fill="#9EAAB2"/>
<line x1="148" y1="136" x2="253" y2="136" stroke="#8A9298" stroke-width=".5" opacity=".6"/>
<line x1="148" y1="144" x2="253" y2="144" stroke="#8A9298" stroke-width=".5" opacity=".6"/>
<line x1="190" y1="135" x2="190" y2="145" stroke="#8A9298" stroke-width=".5" opacity=".35"/>
<line x1="218" y1="135" x2="218" y2="145" stroke="#8A9298" stroke-width=".5" opacity=".35"/>
<line x1="162" y1="135" x2="162" y2="145" stroke="#8A9298" stroke-width=".5" opacity=".35"/>
<polygon points="284,140 302,139.5 302,140.5" fill="#C5CDD5"/>
<polygon points="284,140 306,139.2 306,140.8" fill="#B5BDC5"/>
<ellipse cx="252" cy="134" rx="11" ry="5" fill="#336688" filter="url(#cgl)" opacity=".9"/>
<ellipse cx="251" cy="133" rx="7" ry="3.5" fill="#66AADD" opacity=".85"/>
<ellipse cx="248" cy="132" rx="3" ry="1.5" fill="#AADDFF" opacity=".5"/>
</g>
<g opacity=".11" transform="translate(338,238) scale(.46)">
<circle cx="0" cy="0" r="30" fill="none" stroke="#FFE81F" stroke-width="3"/>
<circle cx="0" cy="0" r="20" fill="none" stroke="#FFE81F" stroke-width="2"/>
<line x1="0" y1="-30" x2="0" y2="-20" stroke="#FFE81F" stroke-width="3"/>
<line x1="0" y1="30" x2="0" y2="20" stroke="#FFE81F" stroke-width="3"/>
<line x1="-30" y1="0" x2="-20" y2="0" stroke="#FFE81F" stroke-width="3"/>
<line x1="30" y1="0" x2="20" y2="0" stroke="#FFE81F" stroke-width="3"/>
<line x1="-21" y1="-21" x2="-14" y2="-14" stroke="#FFE81F" stroke-width="3"/>
<line x1="21" y1="-21" x2="14" y2="-14" stroke="#FFE81F" stroke-width="3"/>
<line x1="-21" y1="21" x2="-14" y2="14" stroke="#FFE81F" stroke-width="3"/>
<line x1="21" y1="21" x2="14" y2="14" stroke="#FFE81F" stroke-width="3"/>
</g>
</svg>
